<svg width="260" height="98" viewBox="0 0 260 98" fill="none" xmlns="http://www.w3.org/2000/svg">
<path d="M74.2246 58.125C74.1074 59.3672 73.8145 60.498 73.3457 61.5176C72.877 62.5254 72.2617 63.3867 71.5 64.1016C70.7266 64.8281 69.8066 65.3906 68.7402 65.7891C67.6855 66.1758 66.5137 66.3691 65.2246 66.3691C64.1699 66.3691 63.1973 66.2285 62.3066 65.9473C61.4277 65.6543 60.6426 65.2441 59.9512 64.7168C59.2832 64.2246 58.6973 63.6328 58.1934 62.9414C57.7012 62.2383 57.2852 61.4707 56.9453 60.6387C56.6055 59.8184 56.3477 58.9277 56.1719 57.9668C56.0078 57.0059 55.9258 56.0039 55.9258 54.9609V51.4629C55.9258 50.4668 56.0078 49.5059 56.1719 48.5801C56.3359 47.6543 56.582 46.7812 56.9102 45.9609C57.2617 45.0469 57.7129 44.2207 58.2637 43.4824C58.8262 42.7324 59.4707 42.0938 60.1973 41.5664C60.8887 41.0859 61.6504 40.7109 62.4824 40.4414C63.3262 40.1719 64.2461 40.0371 65.2422 40.0371C66.5898 40.0371 67.791 40.2363 68.8457 40.6348C69.9121 41.0332 70.8203 41.5957 71.5703 42.3223C72.332 43.0605 72.9297 43.9512 73.3633 44.9941C73.8086 46.0371 74.0957 47.1973 74.2246 48.4746H70.0059C69.9355 47.7129 69.7891 47.0273 69.5664 46.418C69.3555 45.7969 69.0625 45.2695 68.6875 44.8359C68.3008 44.4023 67.8262 44.0742 67.2637 43.8516C66.7012 43.6172 66.0273 43.5 65.2422 43.5C64.6914 43.5 64.1934 43.5762 63.748 43.7285C63.3145 43.8809 62.9277 44.0977 62.5879 44.3789C62.1191 44.7188 61.7266 45.1641 61.4102 45.7148C61.1055 46.2539 60.8535 46.8574 60.6543 47.5254C60.502 48.1113 60.3848 48.7383 60.3027 49.4062C60.2324 50.0625 60.1973 50.7363 60.1973 51.4277V54.9609C60.1973 55.8164 60.2441 56.6191 60.3379 57.3691C60.4434 58.1191 60.6016 58.8047 60.8125 59.4258C60.9766 59.9414 61.1816 60.4102 61.4277 60.832C61.6855 61.2539 61.9902 61.6172 62.3418 61.9219C62.7051 62.25 63.1211 62.502 63.5898 62.6777C64.0703 62.8418 64.6152 62.9238 65.2246 62.9238C65.9512 62.9238 66.5957 62.8184 67.1582 62.6074C67.7207 62.3965 68.2012 62.0859 68.5996 61.6758C68.9863 61.2773 69.2969 60.7793 69.5312 60.1816C69.7656 59.584 69.918 58.8984 69.9883 58.125H74.2246ZM82.873 49.6875C83.1191 49.3125 83.3945 48.9668 83.6992 48.6504C84.0039 48.334 84.3262 48.0586 84.666 47.8242C85.1934 47.4375 85.7734 47.1445 86.4062 46.9453C87.0508 46.7344 87.7305 46.6289 88.4453 46.6289C89.4414 46.6289 90.3496 46.7754 91.1699 47.0684C92.002 47.3613 92.7109 47.8184 93.2969 48.4395C93.8828 49.0605 94.334 49.8574 94.6504 50.8301C94.9785 51.791 95.1426 52.9453 95.1426 54.293V66H90.9414V54.2578C90.9414 53.5547 90.8535 52.9395 90.6777 52.4121C90.5137 51.8848 90.2676 51.457 89.9395 51.1289C89.5996 50.7773 89.1836 50.5195 88.6914 50.3555C88.2109 50.1797 87.6543 50.0918 87.0215 50.0918C86.5293 50.0918 86.0605 50.1504 85.6152 50.2676C85.1816 50.3848 84.7832 50.5547 84.4199 50.7773C84.1152 50.9531 83.8281 51.1641 83.5586 51.4102C83.3008 51.6562 83.0723 51.9316 82.873 52.2363V66H78.6719V39H82.873V49.6875ZM112.439 66C112.311 65.7656 112.205 65.4844 112.123 65.1562C112.053 64.8164 111.988 64.4648 111.93 64.1016C111.637 64.4062 111.303 64.6992 110.928 64.9805C110.564 65.25 110.154 65.4844 109.697 65.6836C109.24 65.8945 108.748 66.0586 108.221 66.1758C107.693 66.293 107.125 66.3516 106.516 66.3516C105.531 66.3516 104.629 66.2109 103.809 65.9297C103 65.6367 102.309 65.2383 101.734 64.7344C101.148 64.2422 100.691 63.6504 100.363 62.959C100.047 62.2559 99.8887 61.5 99.8887 60.6914C99.8887 59.6484 100.094 58.7285 100.504 57.9316C100.926 57.123 101.535 56.4551 102.332 55.9277C103.07 55.4355 103.979 55.0605 105.057 54.8027C106.146 54.5449 107.377 54.416 108.748 54.416H111.807V53.1328C111.807 52.6406 111.719 52.1953 111.543 51.7969C111.379 51.3984 111.139 51.0527 110.822 50.7598C110.482 50.4668 110.066 50.2441 109.574 50.0918C109.094 49.9277 108.537 49.8457 107.904 49.8457C107.33 49.8457 106.826 49.916 106.393 50.0566C105.971 50.1973 105.619 50.3906 105.338 50.6367C105.057 50.8594 104.846 51.1348 104.705 51.4629C104.576 51.7793 104.512 52.1191 104.512 52.4824H100.293C100.305 51.7207 100.486 50.9883 100.838 50.2852C101.189 49.582 101.705 48.9609 102.385 48.4219C103.041 47.8711 103.85 47.4375 104.811 47.1211C105.783 46.793 106.891 46.6289 108.133 46.6289C109.246 46.6289 110.283 46.7695 111.244 47.0508C112.217 47.3203 113.055 47.7246 113.758 48.2637C114.461 48.8027 115.012 49.4883 115.41 50.3203C115.809 51.1406 116.008 52.0898 116.008 53.168V61.623C116.008 62.4785 116.066 63.252 116.184 63.9434C116.312 64.623 116.494 65.209 116.729 65.7012V66H112.439ZM107.324 62.9766C107.875 62.9766 108.385 62.9062 108.854 62.7656C109.334 62.625 109.768 62.4434 110.154 62.2207C110.541 61.998 110.875 61.7461 111.156 61.4648C111.438 61.1836 111.654 60.8906 111.807 60.5859V57.0703H109.1C108.186 57.0703 107.395 57.1582 106.727 57.334C106.059 57.498 105.525 57.7383 105.127 58.0547C104.775 58.3242 104.512 58.6465 104.336 59.0215C104.172 59.3965 104.09 59.8184 104.09 60.2871C104.09 60.6738 104.16 61.0371 104.301 61.377C104.441 61.7051 104.646 61.9863 104.916 62.2207C105.186 62.4551 105.52 62.6426 105.918 62.7832C106.316 62.9121 106.785 62.9766 107.324 62.9766ZM130.791 66.3516C129.385 66.3516 128.096 66.1172 126.924 65.6484C125.764 65.1797 124.768 64.5293 123.936 63.6973C123.104 62.877 122.459 61.9102 122.002 60.7969C121.557 59.6719 121.334 58.459 121.334 57.1582V56.4375C121.334 54.9492 121.568 53.6016 122.037 52.3945C122.506 51.1875 123.15 50.1562 123.971 49.3008C124.791 48.4453 125.74 47.7891 126.818 47.332C127.908 46.8633 129.068 46.6289 130.299 46.6289C131.67 46.6289 132.883 46.8633 133.938 47.332C134.992 47.7891 135.877 48.4277 136.592 49.248C137.307 50.0801 137.846 51.0703 138.209 52.2188C138.572 53.3672 138.754 54.6211 138.754 55.9805V57.791H125.57V57.8789C125.699 58.7109 125.898 59.4082 126.168 59.9707C126.438 60.5332 126.807 61.0371 127.275 61.4824C127.744 61.9512 128.295 62.3145 128.928 62.5723C129.572 62.8301 130.275 62.959 131.037 62.959C132.08 62.959 133.053 62.7598 133.955 62.3613C134.857 61.9512 135.602 61.3711 136.188 60.6211L138.438 62.8008C137.805 63.7148 136.832 64.5352 135.52 65.2617C134.219 65.9883 132.643 66.3516 130.791 66.3516ZM130.281 50.0391C129.684 50.0391 129.127 50.1504 128.611 50.373C128.107 50.584 127.656 50.8887 127.258 51.2871C126.859 51.6973 126.525 52.1895 126.256 52.7637C125.986 53.3379 125.787 53.9883 125.658 54.7148H134.605V54.4336C134.605 53.8828 134.506 53.3379 134.307 52.7988C134.107 52.248 133.826 51.7676 133.463 51.3574C133.111 50.959 132.666 50.6426 132.127 50.4082C131.6 50.1621 130.984 50.0391 130.281 50.0391ZM155.998 66L155.752 63.3457C155.107 64.2949 154.322 65.0391 153.396 65.5781C152.471 66.1055 151.434 66.3691 150.285 66.3691C149.301 66.3691 148.398 66.2168 147.578 65.9121C146.77 65.5957 146.072 65.1094 145.486 64.4531C144.912 63.7969 144.467 62.959 144.15 61.9395C143.834 60.9082 143.676 59.6777 143.676 58.248V46.9805H147.877V58.2832C147.877 59.1621 147.941 59.9004 148.07 60.498C148.199 61.084 148.404 61.5527 148.686 61.9043C148.967 62.2676 149.324 62.5254 149.758 62.6777C150.191 62.8301 150.701 62.9062 151.287 62.9062C151.896 62.9062 152.441 62.8418 152.922 62.7129C153.402 62.5723 153.824 62.3848 154.188 62.1504C154.492 61.9395 154.762 61.6934 154.996 61.4121C155.23 61.1191 155.43 60.7969 155.594 60.4453V46.9805H159.812V66H155.998ZM164.594 56.3496C164.594 54.9082 164.764 53.5957 165.104 52.4121C165.455 51.2168 165.959 50.1914 166.615 49.3359C167.26 48.4805 168.045 47.8184 168.971 47.3496C169.908 46.8691 170.963 46.6289 172.135 46.6289C173.189 46.6289 174.109 46.8164 174.895 47.1914C175.691 47.5547 176.395 48.0762 177.004 48.7559V39H181.205V66H177.391L177.197 64.0137C176.588 64.7637 175.861 65.3438 175.018 65.7539C174.174 66.1523 173.201 66.3516 172.1 66.3516C170.939 66.3516 169.896 66.1113 168.971 65.6309C168.045 65.1387 167.26 64.459 166.615 63.5918C165.971 62.7363 165.473 61.7227 165.121 60.5508C164.77 59.3672 164.594 58.0898 164.594 56.7188V56.3496ZM168.795 56.7188C168.795 57.5625 168.877 58.3594 169.041 59.1094C169.205 59.8594 169.463 60.5098 169.814 61.0605C170.166 61.6348 170.617 62.0859 171.168 62.4141C171.719 62.7305 172.381 62.8887 173.154 62.8887C174.104 62.8887 174.889 62.6836 175.51 62.2734C176.131 61.8516 176.629 61.2832 177.004 60.5684V52.3945C176.629 51.6914 176.131 51.1348 175.51 50.7246C174.9 50.3027 174.127 50.0918 173.189 50.0918C172.404 50.0918 171.73 50.2559 171.168 50.584C170.617 50.9121 170.172 51.3633 169.832 51.9375C169.469 52.5117 169.205 53.1797 169.041 53.9414C168.877 54.6914 168.795 55.4941 168.795 56.3496V56.7188ZM198.924 66C198.795 65.7656 198.689 65.4844 198.607 65.1562C198.537 64.8164 198.473 64.4648 198.414 64.1016C198.121 64.4062 197.787 64.6992 197.412 64.9805C197.049 65.25 196.639 65.4844 196.182 65.6836C195.725 65.8945 195.232 66.0586 194.705 66.1758C194.178 66.293 193.609 66.3516 193 66.3516C192.016 66.3516 191.113 66.2109 190.293 65.9297C189.484 65.6367 188.793 65.2383 188.219 64.7344C187.633 64.2422 187.176 63.6504 186.848 62.959C186.531 62.2559 186.373 61.5 186.373 60.6914C186.373 59.6484 186.578 58.7285 186.988 57.9316C187.41 57.123 188.02 56.4551 188.816 55.9277C189.555 55.4355 190.463 55.0605 191.541 54.8027C192.631 54.5449 193.861 54.416 195.232 54.416H198.291V53.1328C198.291 52.6406 198.203 52.1953 198.027 51.7969C197.863 51.3984 197.623 51.0527 197.307 50.7598C196.967 50.4668 196.551 50.2441 196.059 50.0918C195.578 49.9277 195.021 49.8457 194.389 49.8457C193.814 49.8457 193.311 49.916 192.877 50.0566C192.455 50.1973 192.104 50.3906 191.822 50.6367C191.541 50.8594 191.33 51.1348 191.189 51.4629C191.061 51.7793 190.996 52.1191 190.996 52.4824H186.777C186.789 51.7207 186.971 50.9883 187.322 50.2852C187.674 49.582 188.189 48.9609 188.869 48.4219C189.525 47.8711 190.334 47.4375 191.295 47.1211C192.268 46.793 193.375 46.6289 194.617 46.6289C195.73 46.6289 196.768 46.7695 197.729 47.0508C198.701 47.3203 199.539 47.7246 200.242 48.2637C200.945 48.8027 201.496 49.4883 201.895 50.3203C202.293 51.1406 202.492 52.0898 202.492 53.168V61.623C202.492 62.4785 202.551 63.252 202.668 63.9434C202.797 64.623 202.979 65.209 203.213 65.7012V66H198.924ZM193.809 62.9766C194.359 62.9766 194.869 62.9062 195.338 62.7656C195.818 62.625 196.252 62.4434 196.639 62.2207C197.025 61.998 197.359 61.7461 197.641 61.4648C197.922 61.1836 198.139 60.8906 198.291 60.5859V57.0703H195.584C194.67 57.0703 193.879 57.1582 193.211 57.334C192.543 57.498 192.01 57.7383 191.611 58.0547C191.26 58.3242 190.996 58.6465 190.82 59.0215C190.656 59.3965 190.574 59.8184 190.574 60.2871C190.574 60.6738 190.645 61.0371 190.785 61.377C190.926 61.7051 191.131 61.9863 191.4 62.2207C191.67 62.4551 192.004 62.6426 192.402 62.7832C192.801 62.9121 193.27 62.9766 193.809 62.9766Z" fill="#F22929"/>
<line y1="-1.5" x2="56.5604" y2="-1.5" transform="matrix(-0.795609 -0.60581 0.795609 -0.60581 99 36.2649)" stroke="#F22929" stroke-width="3"/>
<line y1="-1.5" x2="54.9825" y2="-1.5" transform="matrix(0.782066 -0.623195 0.80861 0.588345 11 36.2649)" stroke="#F22929" stroke-width="3"/>
<line x1="11.5" y1="35" x2="11.5" y2="95" stroke="#F22929" stroke-width="3"/>
<line x1="99" y1="96.5" x2="11" y2="96.5" stroke="#F22929" stroke-width="3"/>
</svg>
